<svg xmlns="http://www.w3.org/2000/svg" viewBox="0 0 32 32" fill="none">
  <rect width="32" height="32" rx="8" fill="url(#g)"/>
  <path d="M16 6 C16 6 10 12 10 18 C10 21.3 12.7 24 16 24 C19.3 24 22 21.3 22 18 C22 12 16 6 16 6Z" fill="white" opacity="0.9"/>
  <path d="M16 14 C16 14 13 17 13 19.5 C13 21 14.3 22 16 22 C17.7 22 19 21 19 19.5 C19 17 16 14 16 14Z" fill="url(#g2)"/>
  <defs>
    <linearGradient id="g" x1="0" y1="0" x2="32" y2="32">
      <stop offset="0%" stop-color="#0ea5e9"/>
      <stop offset="100%" stop-color="#6366f1"/>
    </linearGradient>
    <linearGradient id="g2" x1="0" y1="0" x2="0" y2="1">
      <stop offset="0%" stop-color="#0ea5e9"/>
      <stop offset="100%" stop-color="#6366f1"/>
    </linearGradient>
  </defs>
</svg>
